<svg id="svg" xmlns="http://www.w3.org/2000/svg" xmlns:xlink="http://www.w3.org/1999/xlink" width="400" height="400" viewBox="0, 0, 400,400"><g id="svgg"><path id="path0" d="M264.000 130.000 L 264.000 184.000 276.000 184.000 C 284.403 184.000,288.000 182.054,288.000 177.510 C 288.000 172.394,289.188 172.006,293.612 175.678 C 331.586 207.194,387.064 166.954,366.215 123.017 C 354.874 99.118,316.039 91.054,297.258 108.697 L 288.000 117.395 288.000 96.697 C 288.000 76.367,287.787 76.000,276.000 76.000 L 264.000 76.000 264.000 130.000 M0.000 142.000 C 0.000 183.568,0.098 184.000,9.519 184.000 C 18.288 184.000,19.175 182.119,20.764 160.150 C 24.696 105.782,64.000 102.737,64.000 156.800 L 64.000 184.000 78.000 184.000 L 92.000 184.000 92.000 160.890 C 92.000 132.708,99.485 120.000,116.086 120.000 C 131.328 120.000,136.000 129.324,136.000 159.737 L 136.000 184.000 148.000 184.000 L 160.000 184.000 160.000 152.584 C 160.000 124.781,158.872 119.951,150.191 110.584 C 137.586 96.983,104.672 95.328,92.325 107.675 C 84.759 115.241,84.553 115.241,77.705 107.675 C 68.718 97.744,37.837 97.098,27.315 106.620 C 20.508 112.780,20.000 112.780,20.000 106.620 C 20.000 102.225,16.638 100.000,10.000 100.000 L 0.000 100.000 0.000 142.000 M179.463 111.315 C 154.624 133.509,164.154 175.425,195.989 183.997 C 239.023 195.585,272.707 160.265,255.221 121.888 C 244.240 97.787,201.309 91.795,179.463 111.315 M380.000 142.000 L 380.000 184.000 390.000 184.000 L 400.000 184.000 400.000 142.000 L 400.000 100.000 390.000 100.000 L 380.000 100.000 380.000 142.000 M229.714 126.286 C 237.776 134.347,237.817 153.512,229.787 160.177 C 214.096 173.199,188.000 162.191,188.000 142.550 C 188.000 123.337,215.891 112.462,229.714 126.286 M340.685 126.620 C 348.172 133.396,350.185 146.544,344.939 154.401 C 331.779 174.109,300.247 165.617,300.061 142.315 C 299.908 123.128,325.781 113.132,340.685 126.620 M25.259 217.669 C 4.103 227.179,-6.136 256.527,4.468 277.263 C 21.471 310.510,79.981 307.591,89.946 273.000 C 93.466 260.782,72.458 259.942,64.928 272.000 C 53.737 289.919,24.000 278.154,24.000 255.806 C 24.000 232.935,58.479 224.959,66.540 245.965 C 69.634 254.028,92.000 254.114,92.000 246.063 C 92.000 223.804,50.699 206.234,25.259 217.669 M121.513 217.748 C 93.589 229.901,86.333 266.948,107.692 288.308 C 135.986 316.601,188.000 297.747,188.000 259.198 C 188.000 223.487,155.246 203.067,121.513 217.748 M217.259 217.669 C 186.175 231.641,184.003 281.605,213.888 295.221 C 256.928 314.831,301.094 278.802,282.373 239.352 C 271.448 216.329,242.032 206.533,217.259 217.669 M334.091 218.259 C 327.542 221.674,320.819 226.613,319.153 229.234 C 317.260 232.211,316.100 230.621,316.061 225.000 C 316.011 217.680,313.760 216.000,304.000 216.000 L 292.000 216.000 292.000 270.000 L 292.000 324.000 304.000 324.000 C 315.756 324.000,316.000 323.588,316.000 303.710 L 316.000 283.419 326.539 291.710 C 346.606 307.494,385.327 299.828,395.221 278.112 C 413.458 238.087,372.664 198.146,334.091 218.259 M158.182 241.818 C 174.893 258.529,165.941 280.000,142.263 280.000 C 119.086 280.000,109.900 253.852,127.943 239.242 C 139.909 229.552,146.475 230.112,158.182 241.818 M249.263 236.599 C 272.853 249.015,266.001 280.000,239.666 280.000 C 208.388 280.000,208.051 240.120,239.263 232.316 C 239.958 232.142,244.458 234.069,249.263 236.599 M371.000 240.979 C 378.005 246.583,377.235 266.194,369.714 273.714 C 360.384 283.044,341.621 281.667,334.227 271.110 C 317.252 246.875,347.446 222.135,371.000 240.979 " stroke="none" fill="#FFFFFF" fill-rule="evenodd"></path></g></svg>
