<svg xmlns="http://www.w3.org/2000/svg" viewBox="0 0 20 20"><path d="M10,0A10,10,0,1,0,20,10,10,10,0,0,0,10,0ZM6.4,11.7A3.15,3.15,0,1,1,9.55,8.55,3.16,3.16,0,0,1,6.4,11.7ZM13.73,16a3.16,3.16,0,0,1-3.15-3.15h1.5a1.65,1.65,0,1,0,3.3,0h1.5A3.15,3.15,0,0,1,13.73,16Zm0-4.26a3.15,3.15,0,1,1,3.15-3.15A3.16,3.16,0,0,1,13.73,11.7Z" transform="translate(0 -0.01)" fill="#FFF"/><circle cx="6.4" cy="8.53" r="1.65" fill="#FFF"/><path d="M13.73,6.9a1.65,1.65,0,1,0,1.65,1.65A1.65,1.65,0,0,0,13.73,6.9Z" transform="translate(0 -0.01)" fill="#FFF"/></svg>