<svg id="svg"  xmlns="http://www.w3.org/2000/svg" xmlns:xlink="http://www.w3.org/1999/xlink" width="400" height="400" viewBox="0, 0, 400,400"><g id="svgg"><path id="path0" d="M127.755 11.809 C -34.441 63.950,-48.766 297.846,105.408 376.683 C 305.588 479.046,507.479 208.645,342.294 59.411 C 284.909 7.567,199.737 -11.331,127.755 11.809 M115.406 122.662 C 109.375 138.379,88.000 140.670,88.000 125.600 C 88.000 110.716,105.974 94.774,113.862 102.662 C 117.527 106.327,118.221 115.327,115.406 122.662 M292.000 116.110 C 292.000 138.494,268.568 136.013,265.350 113.288 C 263.296 98.778,265.990 95.210,277.350 97.398 C 285.686 99.003,292.000 107.068,292.000 116.110 M130.400 236.000 C 167.885 273.485,207.081 274.517,255.698 239.299 C 279.228 222.254,292.367 217.167,298.088 222.888 C 321.290 246.090,242.169 304.000,187.266 304.000 C 155.286 304.000,88.000 247.776,88.000 221.053 C 88.000 201.144,99.651 205.251,130.400 236.000 " stroke="none" fill="#FFFFFF" fill-rule="evenodd"></path></g></svg>
